<svg width="381" height="34" viewBox="0 0 381 34" fill="none" xmlns="http://www.w3.org/2000/svg">
<path d="M11.49 19.255C12.795 19.48 14.01 19.57 15.18 19.57C18.555 19.57 21.75 18.58 24.225 16.78C26.925 14.8 28.455 12.28 28.455 10.885C28.455 8.90499 25.305 7.68999 19.05 7.32999C18.915 8.31999 18.465 9.26499 17.655 10.39L13.425 16.33C13.785 16.285 14.19 16.24 14.46 16.24C15.675 16.24 16.575 16.285 17.16 16.6C16.35 16.96 14.82 17.365 12.57 17.635L11.49 19.255ZM8.02502 24.385L5.86502 27.94C6.09002 28.12 6.18002 28.21 6.18002 28.48C6.18002 28.975 5.73002 29.83 4.92002 31.135C3.79502 32.89 3.03002 33.835 2.04002 33.835C1.41002 33.835 0.960022 33.295 0.960022 32.35C0.960022 31.54 2.04002 28.12 5.05502 23.485C3.93002 22.63 3.30002 22 3.30002 21.01C3.30002 18.985 5.55002 17.23 9.42002 16.69C10.995 14.395 13.425 11.2 16.89 7.28499C7.93502 7.77999 2.85002 10.345 1.99502 10.345C1.81502 10.345 1.77002 10.12 1.77002 9.80499C1.77002 9.57999 2.76002 7.50999 4.83002 4.53999C5.37002 3.77499 5.64002 3.32499 6.90002 2.91999C10.14 1.79499 14.595 0.984985 18.465 0.984985C26.61 0.984985 31.2 4.35999 31.2 10.57C31.2 15.025 29.355 18.58 25.89 20.92C22.29 23.35 17.295 24.88 12.165 24.88C10.77 24.88 9.42002 24.7 8.02502 24.385Z" fill="black"/>
<path d="M43.3665 17.77C36.2565 20.785 32.4765 22.675 32.4765 26.05C32.4765 26.725 32.7915 27.175 33.1965 27.175C34.2315 27.175 38.3715 24.205 43.3665 17.77ZM39.9465 25.15C36.2115 29.065 33.7815 31.045 32.5665 31.045C31.6215 31.045 29.1465 27.67 29.1465 24.925C29.1465 23.215 30.6315 20.92 33.3315 18.625C35.3565 16.96 37.5615 15.7 40.2165 14.71C42.6915 13.765 44.3565 13.495 44.7165 13.495C45.7065 13.495 46.7415 14.935 46.7415 15.7C46.7415 16.015 46.5165 16.15 45.9765 16.465L45.2115 16.915L45.9315 18.445C46.0665 18.76 46.2015 19.03 46.2015 19.255C46.2015 20.47 42.9165 23.44 42.9165 25.78C42.9165 26.455 43.3665 26.815 44.1315 26.815C45.5265 26.815 47.3715 25.33 50.2515 22.63L50.2965 24.475C45.9315 29.2 43.3215 31.945 41.2515 31.945C39.9915 31.945 38.9115 30.91 38.9115 29.38C38.9115 28.345 39.3615 27.04 39.9465 25.15Z" fill="black"/>
<path d="M50.3714 24.745C50.5064 24.745 50.6414 24.7 50.7314 24.7C51.9914 24.7 52.9364 25.555 53.9714 27.22C55.9514 25.87 56.7614 24.61 56.7614 22.54C56.7614 21.55 56.5814 20.425 56.2214 19.12C54.4664 21.01 52.4414 22.81 50.3714 24.745ZM65.2214 22.72L65.2664 24.565C60.6314 29.47 56.9414 31.9 54.2414 31.9C51.4514 31.9 48.3914 29.245 48.3914 26.905C48.3914 25.96 48.9314 25.24 49.8764 24.835V23.215C53.1614 19.975 55.3214 17.725 56.4014 16.375C56.8064 14.35 57.5714 13.63 59.4614 13.63C60.0464 13.63 60.2264 13.855 60.2264 14.35C60.2264 14.665 60.1364 14.935 60.1364 15.115C60.1364 16.015 60.9464 17.68 60.9464 20.02C60.9464 23.53 58.3364 27.175 55.1864 28.075C55.7264 28.21 56.1314 28.3 56.5364 28.3C58.3364 28.3 61.2614 26.455 65.2214 22.72Z" fill="black"/>
<path d="M65.632 24.34C65.182 24.655 64.7321 24.97 64.3271 25.285L64.2821 23.485C66.1271 21.505 67.837 19.57 69.3671 17.59C68.557 17.455 67.7921 17.365 67.1171 17.365C66.8921 17.365 66.5771 17.365 66.2621 17.365C65.9921 17.365 65.8571 17.275 65.8571 17.095C65.8571 16.6 67.3421 14.215 68.4671 13.405C69.2321 12.865 70.6721 12.64 72.8321 12.64C74.7221 10.075 75.3521 8.81499 78.0521 8.81499C78.5021 8.81499 78.9521 9.12999 78.9521 9.44499C78.9521 9.84999 78.7721 10.165 78.4121 10.57L76.6121 12.685C78.0971 12.775 78.8621 13.09 78.8621 13.495C78.8621 13.63 78.0071 15.34 76.2071 17.005C75.3521 17.77 74.7671 17.995 73.687 17.995C73.1021 17.995 72.6971 17.995 72.3821 17.95C69.6371 21.37 68.5121 24.835 68.5121 26.86C68.5121 27.715 68.9171 28.12 69.6371 28.12C70.8521 28.12 73.3721 26.32 77.3771 22.72L77.4221 24.565C72.6971 29.65 68.9621 32.125 66.7121 32.125C65.0471 32.125 64.1021 31.135 64.1021 29.425C64.1021 28.075 64.552 26.32 65.632 24.34Z" fill="black"/>
<path d="M84.9588 25.285C81.9438 29.155 79.8739 31.09 78.6589 31.09C77.3989 31.09 75.4189 29.2 75.4189 25.96C75.4189 23.17 76.7239 20.965 79.2439 18.175C80.5939 16.69 81.3589 16.015 82.7539 16.015C84.1039 16.015 85.0938 16.42 85.0938 16.915C85.0938 17.95 83.0689 19.93 79.4239 23.44C78.8839 24.565 78.6139 25.42 78.6139 26.05C78.6139 26.365 78.6589 26.545 78.7939 26.545C79.6039 26.545 82.5738 24.43 86.7589 19.975C89.8639 16.645 91.7089 14.665 92.6989 14.665C93.1939 14.665 93.5089 15.25 93.5089 16.465C93.5089 17.77 93.2838 17.95 92.6088 18.76C89.3688 22.45 88.0639 25.42 88.0639 26.455C88.0639 27.04 88.5588 27.445 89.0988 27.445C90.1338 27.445 92.1589 25.69 95.6239 22.63V24.565C91.2589 29.47 88.5588 32.125 86.3988 32.125C84.8689 32.125 83.8338 31.045 83.8338 29.425C83.8338 28.525 84.1488 27.13 84.9588 25.285Z" fill="black"/>
<path d="M95.4593 24.745C95.5943 24.745 95.7293 24.7 95.8193 24.7C97.0793 24.7 98.0243 25.555 99.0593 27.22C101.039 25.87 101.849 24.61 101.849 22.54C101.849 21.55 101.669 20.425 101.309 19.12C99.5543 21.01 97.5293 22.81 95.4593 24.745ZM110.309 22.72L110.354 24.565C105.719 29.47 102.029 31.9 99.3293 31.9C96.5393 31.9 93.4793 29.245 93.4793 26.905C93.4793 25.96 94.0193 25.24 94.9643 24.835V23.215C98.2493 19.975 100.409 17.725 101.489 16.375C101.894 14.35 102.659 13.63 104.549 13.63C105.134 13.63 105.314 13.855 105.314 14.35C105.314 14.665 105.224 14.935 105.224 15.115C105.224 16.015 106.034 17.68 106.034 20.02C106.034 23.53 103.424 27.175 100.274 28.075C100.814 28.21 101.219 28.3 101.624 28.3C103.424 28.3 106.349 26.455 110.309 22.72Z" fill="black"/>
<path d="M112.655 22.855C117.47 20.65 119.945 18.625 119.945 17.41C119.945 17.05 119.855 16.915 119.63 16.915C118.505 16.915 114.86 18.625 112.655 22.855ZM112.475 24.655C112.475 24.745 112.475 24.79 112.475 24.88C112.475 26.86 113.645 28.03 115.265 28.03C117.29 28.03 120.485 26.32 124.265 22.675V24.565C119.99 29.245 116.57 31.675 113.24 31.675C110.18 31.675 108.425 29.74 108.425 25.96C108.425 23.215 109.73 20.605 112.25 18.22C114.815 15.79 117.515 14.575 120.17 14.575C122.24 14.575 123.23 15.205 123.23 16.465C123.23 18.895 119.315 23.035 112.475 24.655Z" fill="black"/>
<path d="M129.366 24.475L131.211 24.79C134.586 22.09 136.296 20.38 136.296 19.39C136.296 19.21 136.206 19.165 136.071 19.165C135.441 19.165 132.786 20.74 129.366 24.475ZM127.791 26.545C125.406 29.335 124.461 31.045 123.696 31.045C122.886 31.045 122.571 29.605 122.571 26.455C122.571 21.955 124.866 17.815 129.636 11.965C134.946 5.52999 139.086 2.51499 139.986 2.51499C140.526 2.51499 140.931 2.96499 140.931 3.59499C140.931 5.21499 135.936 12.28 125.451 23.845L125.226 25.375C131.661 18.355 136.251 15.16 137.871 15.16C138.906 15.16 139.896 16.375 139.896 17.86C139.896 20.875 137.106 22.81 132.201 26.41C133.101 27.76 133.821 28.39 134.406 28.39C135.576 28.39 138.231 26.5 142.236 22.54L142.281 24.43C137.916 29.425 134.856 31.99 132.921 31.99C130.896 31.99 129.501 30.19 127.791 26.545Z" fill="black"/>
<path d="M167.073 17.77C159.963 20.785 156.183 22.675 156.183 26.05C156.183 26.725 156.498 27.175 156.903 27.175C157.938 27.175 162.078 24.205 167.073 17.77ZM163.653 25.15C159.918 29.065 157.488 31.045 156.273 31.045C155.328 31.045 152.853 27.67 152.853 24.925C152.853 23.215 154.338 20.92 157.038 18.625C159.063 16.96 161.268 15.7 163.923 14.71C166.398 13.765 168.063 13.495 168.423 13.495C169.413 13.495 170.448 14.935 170.448 15.7C170.448 16.015 170.223 16.15 169.683 16.465L168.918 16.915L169.638 18.445C169.773 18.76 169.908 19.03 169.908 19.255C169.908 20.47 166.623 23.44 166.623 25.78C166.623 26.455 167.073 26.815 167.838 26.815C169.233 26.815 171.078 25.33 173.958 22.63L174.003 24.475C169.638 29.2 167.028 31.945 164.958 31.945C163.698 31.945 162.618 30.91 162.618 29.38C162.618 28.345 163.068 27.04 163.653 25.15Z" fill="black"/>
<path d="M171.332 24.34C173.492 19.48 175.607 17.005 177.452 17.005C178.577 17.005 179.522 17.5 179.522 17.95C179.522 18.535 178.262 20.155 175.832 22.9C175.067 23.71 174.752 24.655 174.752 25.465C174.752 25.465 174.752 25.51 174.752 25.555C180.872 18.58 185.462 15.565 186.722 15.565C187.352 15.565 188.072 16.915 188.072 18.22C188.072 19.75 186.812 20.425 185.597 22.045C184.022 24.115 183.347 25.915 183.347 26.365C183.347 26.95 183.617 27.265 184.202 27.265C184.967 27.265 186.947 25.645 190.322 22.585V24.52C186.047 29.2 183.482 31.99 181.187 31.99C179.882 31.99 178.937 30.82 178.937 29.065C178.937 27.31 180.197 24.79 182.672 21.37C176.822 26.815 174.932 30.955 173.537 30.955C172.277 30.955 171.287 28.885 171.287 25.465C171.287 25.285 171.287 24.88 171.332 24.34Z" fill="black"/>
<path d="M200.014 18.85C194.074 21.055 191.149 22.9 191.149 26.365C191.149 26.815 191.194 27.04 191.464 27.04C192.274 27.04 194.254 25.465 197.584 22.45C198.394 21.73 199.339 21.01 200.014 18.85ZM198.079 24.7C194.074 28.885 191.689 30.955 190.789 30.955C189.799 30.955 188.134 28.345 188.134 24.115C188.134 22.09 189.394 20.29 192.004 18.445C195.154 16.195 197.854 15.205 199.294 15.205C200.104 15.205 200.644 15.43 201.139 16.15C205.594 8.49999 208.159 4.71999 209.014 4.71999C209.689 4.71999 210.544 5.52999 210.544 6.65499C210.544 8.36499 208.159 11.65 204.289 17.185C202.309 20.02 201.139 24.655 201.139 26.68C201.139 27.175 201.544 27.715 201.994 27.715C203.119 27.715 205.054 25.78 208.654 22.675V24.52C204.379 29.29 201.994 31.99 199.699 31.99C198.169 31.99 197.719 30.91 197.719 28.615C197.719 27.445 197.809 26.185 198.079 24.7Z" fill="black"/>
<path d="M243.168 16.555L246.453 6.56499C241.953 10.75 238.803 14.305 236.598 17.005C239.118 16.915 241.323 16.825 243.168 16.555ZM232.503 22.27L230.928 24.25C225.978 30.505 222.693 33.925 220.488 33.925C219.948 33.925 219.588 33.52 219.588 33.115C219.588 31.495 222.963 26.86 226.428 25.825L229.308 22.225C226.158 22.045 224.763 22 224.763 20.695C224.763 19.795 226.518 17.68 228.048 16.87C229.443 16.15 231.198 15.97 233.493 15.925C232.593 16.825 231.468 16.69 230.343 17.095H233.448C242.583 6.65499 248.208 1.65999 249.423 1.65999C250.053 1.65999 250.773 2.37999 250.773 3.45999C250.773 4.22499 250.503 5.52999 249.963 7.23999L247.128 16.42L249.333 16.285C249.423 16.285 249.513 16.285 249.648 16.285C250.728 16.285 251.628 16.78 251.628 17.23C251.628 17.86 250.368 19.66 248.613 21.19C247.938 21.775 246.993 21.775 245.418 21.955C244.653 24.295 244.248 25.825 244.248 26.68C244.248 27.31 244.518 27.76 244.833 27.76C245.733 27.76 247.803 26.32 251.178 23.485L251.223 24.925C247.128 29.38 244.518 31.945 241.773 31.945C240.243 31.945 239.478 31.18 239.478 29.56C239.478 28.885 239.523 28.12 239.748 27.49L241.593 21.91C239.163 22.18 236.598 22.27 233.943 22.27C233.493 22.27 232.953 22.27 232.503 22.27Z" fill="black"/>
<path d="M251.817 24.745C251.952 24.745 252.087 24.7 252.177 24.7C253.437 24.7 254.382 25.555 255.417 27.22C257.397 25.87 258.207 24.61 258.207 22.54C258.207 21.55 258.027 20.425 257.667 19.12C255.912 21.01 253.887 22.81 251.817 24.745ZM266.667 22.72L266.712 24.565C262.077 29.47 258.387 31.9 255.687 31.9C252.897 31.9 249.837 29.245 249.837 26.905C249.837 25.96 250.377 25.24 251.322 24.835V23.215C254.607 19.975 256.767 17.725 257.847 16.375C258.252 14.35 259.017 13.63 260.907 13.63C261.492 13.63 261.672 13.855 261.672 14.35C261.672 14.665 261.582 14.935 261.582 15.115C261.582 16.015 262.392 17.68 262.392 20.02C262.392 23.53 259.782 27.175 256.632 28.075C257.172 28.21 257.577 28.3 257.982 28.3C259.782 28.3 262.707 26.455 266.667 22.72Z" fill="black"/>
<path d="M266.582 24.745C266.717 24.745 266.852 24.7 266.942 24.7C268.202 24.7 269.147 25.555 270.182 27.22C272.162 25.87 272.972 24.61 272.972 22.54C272.972 21.55 272.792 20.425 272.432 19.12C270.677 21.01 268.652 22.81 266.582 24.745ZM281.432 22.72L281.477 24.565C276.842 29.47 273.152 31.9 270.452 31.9C267.662 31.9 264.602 29.245 264.602 26.905C264.602 25.96 265.142 25.24 266.087 24.835V23.215C269.372 19.975 271.532 17.725 272.612 16.375C273.017 14.35 273.782 13.63 275.672 13.63C276.257 13.63 276.437 13.855 276.437 14.35C276.437 14.665 276.347 14.935 276.347 15.115C276.347 16.015 277.157 17.68 277.157 20.02C277.157 23.53 274.547 27.175 271.397 28.075C271.937 28.21 272.342 28.3 272.747 28.3C274.547 28.3 277.472 26.455 281.432 22.72Z" fill="black"/>
<path d="M286.568 26.725C286.523 26.23 286.478 25.78 286.478 25.42C286.478 23.89 287.198 21.82 288.593 19.21C284.093 21.055 281.753 24.61 281.753 26.635C281.753 27.76 282.338 28.3 283.418 28.3C284.363 28.3 285.488 27.805 286.568 26.725ZM288.683 28.66C286.838 30.64 284.993 31.675 283.193 31.675C280.763 31.675 278.648 29.425 278.648 25.735C278.648 23.485 279.953 20.515 282.428 18.22C284.543 16.24 287.108 15.205 288.863 15.205C290.573 15.205 291.833 16.105 291.833 16.69C291.833 16.915 291.518 17.095 291.068 17.725C291.113 17.725 291.158 17.725 291.158 17.725C292.148 17.725 292.463 18.31 292.463 19.705C292.463 21.685 291.698 23.935 290.123 26.41C291.563 26.365 293.363 25.015 295.973 22.45L295.928 24.61C293.273 27.22 291.338 28.705 289.583 28.705C289.358 28.705 289.043 28.705 288.683 28.66Z" fill="black"/>
<path d="M309.297 22.675V24.565C304.887 29.605 301.377 32.08 298.992 32.08C296.652 32.08 294.267 28.975 294.267 25.33C294.267 22.72 295.617 20.11 298.362 17.815C301.152 15.475 304.077 14.395 305.427 14.395C306.777 14.395 307.406 14.935 307.406 16.15C307.406 18.625 304.347 21.91 303.177 21.91C302.547 21.91 302.322 21.46 302.277 20.425C299.937 21.865 298.317 23.26 297.327 24.7C297.327 24.88 297.327 25.015 297.327 25.15C297.327 26.995 298.316 28.03 299.936 28.03C302.456 28.03 305.517 26.23 309.297 22.675Z" fill="black"/>
<path d="M315.464 12.82C315.464 10.93 317.354 8.99499 318.974 8.99499C319.829 8.99499 320.279 9.44499 320.279 10.39C320.279 11.875 318.479 14.305 316.904 14.305C316.049 14.305 315.464 13.675 315.464 12.82ZM319.694 22.675L319.739 24.565C316.049 29.065 313.304 31.45 310.784 31.45C308.489 31.45 307.049 29.47 307.049 25.825C307.049 22.63 308.309 20.2 311.234 17.32C312.539 16.015 313.619 15.25 315.014 15.25C315.959 15.25 316.454 15.655 316.454 16.465C316.454 17.905 314.699 20.605 310.829 23.89C310.694 24.43 310.604 24.88 310.604 25.33C310.604 26.545 311.459 27.355 312.674 27.355C313.934 27.355 316.409 25.87 319.694 22.675Z" fill="black"/>
<path d="M332.307 17.77C325.197 20.785 321.417 22.675 321.417 26.05C321.417 26.725 321.732 27.175 322.137 27.175C323.172 27.175 327.312 24.205 332.307 17.77ZM328.887 25.15C325.152 29.065 322.722 31.045 321.507 31.045C320.562 31.045 318.087 27.67 318.087 24.925C318.087 23.215 319.572 20.92 322.272 18.625C324.297 16.96 326.502 15.7 329.157 14.71C331.632 13.765 333.297 13.495 333.657 13.495C334.647 13.495 335.682 14.935 335.682 15.7C335.682 16.015 335.457 16.15 334.917 16.465L334.152 16.915L334.872 18.445C335.007 18.76 335.142 19.03 335.142 19.255C335.142 20.47 331.857 23.44 331.857 25.78C331.857 26.455 332.307 26.815 333.072 26.815C334.467 26.815 336.312 25.33 339.192 22.63L339.237 24.475C334.872 29.2 332.262 31.945 330.192 31.945C328.932 31.945 327.852 30.91 327.852 29.38C327.852 28.345 328.302 27.04 328.887 25.15Z" fill="black"/>
<path d="M339.807 24.34C339.357 24.655 338.907 24.97 338.502 25.285L338.457 23.485C340.302 21.505 342.012 19.57 343.542 17.59C342.732 17.455 341.967 17.365 341.292 17.365C341.067 17.365 340.752 17.365 340.437 17.365C340.167 17.365 340.032 17.275 340.032 17.095C340.032 16.6 341.517 14.215 342.642 13.405C343.407 12.865 344.847 12.64 347.007 12.64C348.897 10.075 349.527 8.81499 352.227 8.81499C352.677 8.81499 353.127 9.12999 353.127 9.44499C353.127 9.84999 352.947 10.165 352.587 10.57L350.787 12.685C352.272 12.775 353.037 13.09 353.037 13.495C353.037 13.63 352.182 15.34 350.382 17.005C349.527 17.77 348.942 17.995 347.862 17.995C347.277 17.995 346.872 17.995 346.557 17.95C343.812 21.37 342.687 24.835 342.687 26.86C342.687 27.715 343.092 28.12 343.812 28.12C345.027 28.12 347.547 26.32 351.552 22.72L351.597 24.565C346.872 29.65 343.137 32.125 340.887 32.125C339.222 32.125 338.277 31.135 338.277 29.425C338.277 28.075 338.727 26.32 339.807 24.34Z" fill="black"/>
<path d="M353.959 22.855C358.774 20.65 361.249 18.625 361.249 17.41C361.249 17.05 361.159 16.915 360.934 16.915C359.809 16.915 356.164 18.625 353.959 22.855ZM353.779 24.655C353.779 24.745 353.779 24.79 353.779 24.88C353.779 26.86 354.949 28.03 356.569 28.03C358.594 28.03 361.789 26.32 365.569 22.675V24.565C361.294 29.245 357.874 31.675 354.544 31.675C351.484 31.675 349.729 29.74 349.729 25.96C349.729 23.215 351.034 20.605 353.554 18.22C356.119 15.79 358.819 14.575 361.474 14.575C363.544 14.575 364.534 15.205 364.534 16.465C364.534 18.895 360.619 23.035 353.779 24.655Z" fill="black"/>
<path d="M365.855 24.745C365.99 24.745 366.125 24.7 366.215 24.7C367.475 24.7 368.42 25.555 369.455 27.22C371.435 25.87 372.245 24.61 372.245 22.54C372.245 21.55 372.065 20.425 371.705 19.12C369.95 21.01 367.925 22.81 365.855 24.745ZM380.705 22.72L380.75 24.565C376.115 29.47 372.425 31.9 369.725 31.9C366.935 31.9 363.875 29.245 363.875 26.905C363.875 25.96 364.415 25.24 365.36 24.835V23.215C368.645 19.975 370.805 17.725 371.885 16.375C372.29 14.35 373.055 13.63 374.945 13.63C375.53 13.63 375.71 13.855 375.71 14.35C375.71 14.665 375.62 14.935 375.62 15.115C375.62 16.015 376.43 17.68 376.43 20.02C376.43 23.53 373.82 27.175 370.67 28.075C371.21 28.21 371.615 28.3 372.02 28.3C373.82 28.3 376.745 26.455 380.705 22.72Z" fill="black"/>
</svg>
